<?xml version="1.0" encoding="UTF-8"?>
<svg xmlns="http://www.w3.org/2000/svg" viewBox="0 0 1280 640" role="img" aria-labelledby="title description">
  <title id="title">mockOS — mock identity infrastructure</title>
  <desc id="description">Social preview for mockOS, a deterministic Entra ID and Okta identity platform for integration tests.</desc>
  <rect width="1280" height="640" fill="#F7F5EF"/>
  <rect x="44" y="44" width="1192" height="552" rx="36" fill="#FFFFFF" stroke="#CDD5D1" stroke-width="2"/>
  <g transform="translate(112 164) scale(1.22)">
    <rect width="256" height="256" rx="56" fill="#F7F5EF"/>
    <path d="M20 96h18m180 0h18" fill="none" stroke="#14231F" stroke-width="12" stroke-linecap="round"/>
    <circle cx="79" cy="98" r="41" fill="#FFFFFF" stroke="#14231F" stroke-width="14"/>
    <circle cx="177" cy="98" r="41" fill="#FFFFFF" stroke="#14231F" stroke-width="14"/>
    <path d="M120 98h16" fill="none" stroke="#14231F" stroke-width="12" stroke-linecap="round"/>
    <path d="M128 164c-16-13-35-17-53-6 10 17 33 21 53 8 20 13 43 9 53-8-18-11-37-7-53 6Z" fill="#14231F"/>
  </g>
  <text x="506" y="173" fill="#2F6B5A" font-family="Inter, ui-sans-serif, system-ui, -apple-system, BlinkMacSystemFont, 'Segoe UI', sans-serif" font-size="20" font-weight="700" letter-spacing="3">DETERMINISTIC IDENTITY TESTING</text>
  <text x="498" y="308" fill="#14231F" font-family="Inter, ui-sans-serif, system-ui, -apple-system, BlinkMacSystemFont, 'Segoe UI', sans-serif" font-size="126" font-weight="760" letter-spacing="-7">mockOS</text>
  <text x="506" y="372" fill="#66736E" font-family="Inter, ui-sans-serif, system-ui, -apple-system, BlinkMacSystemFont, 'Segoe UI', sans-serif" font-size="30" font-weight="500">Mock identity infrastructure</text>
  <text x="506" y="414" fill="#66736E" font-family="Inter, ui-sans-serif, system-ui, -apple-system, BlinkMacSystemFont, 'Segoe UI', sans-serif" font-size="30" font-weight="500">for integration tests.</text>
  <path d="M506 480h610" stroke="#CDD5D1" stroke-width="2"/>
  <text x="506" y="526" fill="#66736E" font-family="ui-monospace, SFMono-Regular, Menlo, Monaco, Consolas, monospace" font-size="18" font-weight="600" letter-spacing=".5">github.com/reachjalil/mockos</text>
</svg>
